<?xml version="1.0" standalone="no"?>
<!DOCTYPE svg PUBLIC "-//W3C//DTD SVG 20010904//EN"
 "http://www.w3.org/TR/2001/REC-SVG-20010904/DTD/svg10.dtd">
<svg version="1.0" xmlns="http://www.w3.org/2000/svg"
 width="800.000000pt" height="600.000000pt" viewBox="0 0 800.000000 600.000000"
 preserveAspectRatio="xMidYMid meet">

<g transform="translate(0.000000,600.000000) scale(0.100000,-0.100000)"
fill="#000000" stroke="none">
<path d="M5280 2840 l0 -360 65 0 65 0 0 83 c0 82 1 84 35 117 19 18 37 32 39
29 2 -2 29 -55 60 -116 l56 -113 76 0 76 0 -87 166 -87 166 49 52 c26 28 66
70 88 94 l39 42 -84 0 -85 -1 -85 -99 -85 -100 -3 200 -2 200 -65 0 -65 0 0
-360z"/>
<path d="M1660 2955 l0 -65 568 0 c520 0 570 -1 602 -18 106 -53 106 -201 0
-254 -32 -17 -82 -18 -602 -18 l-568 0 0 -65 0 -65 1068 0 c1175 0 1117 -3
1195 61 58 48 89 109 95 188 8 122 -37 210 -139 266 l-54 30 -1082 3 -1083 2
0 -65z"/>
<path d="M4305 3011 c-45 -12 -107 -46 -132 -73 -71 -75 -88 -234 -36 -336 50
-101 156 -153 276 -138 146 20 227 118 227 276 0 165 -86 262 -242 274 -34 3
-76 2 -93 -3z m160 -144 c60 -60 60 -190 1 -254 -28 -30 -38 -35 -83 -36 -92
-3 -137 51 -137 163 0 112 40 160 132 160 48 0 58 -4 87 -33z"/>
<path d="M4885 3011 c-134 -37 -197 -124 -198 -272 -1 -65 4 -85 29 -135 51
-103 156 -156 277 -140 144 20 227 120 227 276 0 121 -46 206 -135 246 -56 26
-153 38 -200 25z m160 -144 c55 -55 60 -186 8 -247 -47 -57 -141 -60 -191 -7
-57 62 -53 198 8 259 25 24 36 28 85 28 51 0 60 -3 90 -33z"/>
<path d="M5891 3010 c-69 -15 -118 -52 -131 -101 -12 -44 -6 -91 16 -126 19
-31 82 -62 180 -89 110 -30 124 -38 124 -75 0 -25 -6 -33 -35 -45 -19 -7 -46
-14 -60 -14 -41 0 -94 27 -107 54 -10 24 -16 26 -80 26 l-68 0 6 -27 c12 -51
48 -93 104 -120 46 -24 67 -27 145 -28 77 0 98 4 140 25 64 33 99 93 91 158
-11 82 -32 97 -213 152 -71 21 -106 37 -113 50 -25 46 36 80 116 66 25 -5 41
-16 52 -37 16 -27 21 -29 80 -29 67 0 71 4 51 57 -14 38 -48 73 -86 89 -42 18
-157 25 -212 14z"/>
<path d="M6252 3013 c11 -3 18 -17 21 -41 l4 -37 1 37 c1 25 7 38 20 41 9 3
-1 5 -23 5 -22 0 -32 -2 -23 -5z"/>
<path d="M6321 2978 c1 -40 2 -41 9 -13 4 17 8 24 9 16 0 -8 4 -12 7 -8 8 8
-5 47 -17 47 -5 0 -8 -19 -8 -42z"/>
<path d="M6377 3013 c-11 -10 -8 -35 2 -28 5 3 12 -7 14 -22 3 -20 4 -16 6 15
1 39 -6 51 -22 35z"/>
<path d="M6356 2961 c-4 -7 -5 -15 -2 -18 9 -9 19 4 14 18 -4 11 -6 11 -12 0z"/>
</g>
</svg>
