<?xml version="1.0" standalone="no"?>
<!DOCTYPE svg PUBLIC "-//W3C//DTD SVG 20010904//EN"
 "http://www.w3.org/TR/2001/REC-SVG-20010904/DTD/svg10.dtd">
<svg version="1.0" xmlns="http://www.w3.org/2000/svg"
 width="523.000000pt" height="308.000000pt" viewBox="0 0 523.000000 308.000000"
 preserveAspectRatio="xMidYMid meet">

<g transform="translate(0.000000,308.000000) scale(0.100000,-0.100000)"
fill="#000000" stroke="none">
<path d="M1213 3063 c9 -2 25 -2 35 0 9 3 1 5 -18 5 -19 0 -27 -2 -17 -5z"/>
<path d="M1144 3036 c-9 -23 1 -205 13 -234 8 -21 13 -18 83 54 41 42 69 74
62 70 -8 -5 -29 9 -56 36 -89 88 -95 93 -102 74z"/>
<path d="M1880 2711 c0 -6 4 -13 10 -16 6 -3 7 1 4 9 -7 18 -14 21 -14 7z"/>
<path d="M510 2682 c-19 -9 -43 -33 -54 -52 -18 -35 -18 -38 33 -505 28 -259
67 -616 86 -795 46 -426 74 -669 81 -701 3 -14 19 -39 35 -55 l30 -29 185 3
c181 4 184 4 184 -17 0 -19 -6 -21 -63 -21 -51 0 -68 -4 -82 -20 -16 -18 -31
-20 -120 -20 -93 0 -103 -2 -122 -22 -28 -32 -34 -53 -22 -87 7 -19 24 -36 46
-46 33 -16 103 -17 942 -11 498 4 1459 9 2136 11 1187 4 1230 5 1255 23 36 27
40 83 6 117 -23 23 -32 25 -122 25 -78 0 -99 3 -109 16 -11 15 -158 16 -1769
15 -1685 -2 -1757 -1 -1754 16 2 14 15 19 58 21 l55 3 -3 39 -4 40 -298 0
c-228 0 -301 3 -307 13 -15 24 -222 1941 -211 1954 8 10 84 13 315 13 168 0
303 3 301 8 -2 4 -10 24 -18 45 l-14 37 -321 0 c-285 0 -324 -2 -355 -18z
m910 -2277 c20 -25 1 -35 -65 -35 -64 0 -82 9 -71 35 8 21 119 21 136 0z"/>
<path d="M2115 2660 l39 -40 576 0 577 0 21 -23 c25 -27 26 -33 112 -822 86
-801 81 -757 97 -751 8 4 27 6 41 6 l27 0 -87 786 c-85 770 -87 786 -113 820
-51 67 -19 64 -707 64 l-622 0 39 -40z"/>
<path d="M1910 2655 c0 -5 5 -17 10 -25 5 -8 10 -10 10 -5 0 6 -5 17 -10 25
-5 8 -10 11 -10 5z"/>
<path d="M1961 2504 c0 -11 3 -14 6 -6 3 7 2 16 -1 19 -3 4 -6 -2 -5 -13z"/>
<path d="M1903 2428 l-42 -43 23 -26 23 -27 32 25 c33 26 37 42 18 86 l-12 28
-42 -43z"/>
<path d="M1770 2305 l-43 -44 24 -9 c62 -24 65 -23 96 12 l31 34 -27 26 c-15
14 -29 26 -32 26 -3 0 -25 -20 -49 -45z"/>
<path d="M1480 2274 c0 -62 -1 -64 -20 -54 -46 24 -16 -17 83 -117 98 -97 141
-128 118 -85 -8 15 -3 26 29 57 39 38 40 41 40 105 l0 65 -52 13 c-29 7 -86
28 -125 47 l-73 34 0 -65z"/>
<path d="M3730 228 c0 -5 116 -8 257 -8 141 0 254 2 251 5 -8 9 -508 11 -508
3z"/>
<path d="M22 205 c0 -16 2 -22 5 -12 2 9 2 23 0 30 -3 6 -5 -1 -5 -18z"/>
<path d="M3960 158 c0 -5 79 -8 177 -8 97 0 174 2 171 5 -9 9 -348 11 -348 3z"/>
<path d="M1857 143 c-4 -3 -7 -16 -7 -27 -1 -21 -1 -21 -20 2 -24 28 -36 12
-18 -25 9 -19 22 -29 41 -31 26 -3 28 -2 17 18 -7 12 -10 33 -7 46 5 26 4 28
-6 17z"/>
<path d="M3124 125 c-9 -22 4 -35 36 -35 24 0 28 3 23 17 -4 11 -8 12 -11 5
-5 -17 -42 -15 -42 2 0 9 13 16 33 19 l32 4 -33 1 c-20 1 -35 -3 -38 -13z"/>
</g>
</svg>
